<svg width="1920" height="459" viewBox="0 0 1920 459" fill="none" xmlns="http://www.w3.org/2000/svg">
<mask id="mask0_4510_49193" style="mask-type:alpha" maskUnits="userSpaceOnUse" x="0" y="0" width="1920" height="459">
<rect width="1920" height="459" fill="#C4C4C4"/>
</mask>
<g mask="url(#mask0_4510_49193)">
<path d="M296.529 318.966C244.708 318.966 202.699 287.815 202.699 249.387C202.699 210.96 244.708 179.809 296.529 179.809C348.35 179.809 390.359 210.96 390.359 249.387C390.359 287.815 348.35 318.966 296.529 318.966Z" fill="#F1FAFE"/>
<path d="M208.177 314.326C175.788 314.326 149.533 294.856 149.533 270.839C149.533 246.822 175.788 227.353 208.177 227.353C240.565 227.353 266.82 246.822 266.82 270.839C266.82 294.856 240.565 314.326 208.177 314.326Z" fill="#F1FAFE"/>
<path d="M129.2 314.326C96.8119 314.326 70.5562 294.856 70.5562 270.839C70.5562 246.822 96.8119 227.353 129.2 227.353C161.588 227.353 187.844 246.822 187.844 270.839C187.844 294.856 161.588 314.326 129.2 314.326Z" fill="#F1FAFE"/>
<path d="M66.6453 314.326C34.2572 314.326 8.0015 294.856 8.0015 270.839C8.0015 246.822 34.2572 227.353 66.6453 227.353C99.0333 227.353 125.289 246.822 125.289 270.839C125.289 294.856 99.0333 314.326 66.6453 314.326Z" fill="#F1FAFE"/>
<path d="M175.724 288.815C128.87 288.815 90.8865 260.649 90.8865 225.904C90.8865 191.159 128.87 162.993 175.724 162.993C222.579 162.993 260.562 191.159 260.562 225.904C260.562 260.649 222.579 288.815 175.724 288.815Z" fill="#F1FAFE"/>
<path d="M733.529 311.968C681.708 311.968 639.699 280.817 639.699 242.389C639.699 203.962 681.708 172.811 733.529 172.811C785.35 172.811 827.359 203.962 827.359 242.389C827.359 280.817 785.35 311.968 733.529 311.968Z" fill="#F0FAFE"/>
<path d="M645.177 307.329C612.788 307.329 586.533 287.859 586.533 263.842C586.533 239.825 612.788 220.355 645.177 220.355C677.565 220.355 703.82 239.825 703.82 263.842C703.82 287.859 677.565 307.329 645.177 307.329Z" fill="#F0FAFE"/>
<path d="M566.2 307.329C533.812 307.329 507.556 287.859 507.556 263.842C507.556 239.825 533.812 220.355 566.2 220.355C598.588 220.355 624.844 239.825 624.844 263.842C624.844 287.859 598.588 307.329 566.2 307.329Z" fill="#F0FAFE"/>
<path d="M503.645 307.329C471.257 307.329 445.001 287.859 445.001 263.842C445.001 239.825 471.257 220.355 503.645 220.355C536.033 220.355 562.289 239.825 562.289 263.842C562.289 287.859 536.033 307.329 503.645 307.329Z" fill="#F0FAFE"/>
<path d="M612.724 281.817C565.87 281.817 527.886 253.651 527.886 218.906C527.886 184.161 565.87 155.995 612.724 155.995C659.579 155.995 697.562 184.161 697.562 218.906C697.562 253.651 659.579 281.817 612.724 281.817Z" fill="#F3FAFE"/>
<path d="M1758.9 280.743C1717.79 280.743 1684.46 256.028 1684.46 225.54C1684.46 195.052 1717.79 170.337 1758.9 170.337C1800.01 170.337 1833.34 195.052 1833.34 225.54C1833.34 256.028 1800.01 280.743 1758.9 280.743Z" fill="#FAFDFF"/>
<path d="M1688.8 277.062C1663.1 277.062 1642.27 261.615 1642.27 242.56C1642.27 223.506 1663.1 208.059 1688.8 208.059C1714.5 208.059 1735.33 223.506 1735.33 242.56C1735.33 261.615 1714.5 277.062 1688.8 277.062Z" fill="#FAFDFF"/>
<path d="M1626.14 277.062C1600.45 277.062 1579.62 261.615 1579.62 242.56C1579.62 223.506 1600.45 208.059 1626.14 208.059C1651.84 208.059 1672.67 223.506 1672.67 242.56C1672.67 261.615 1651.84 277.062 1626.14 277.062Z" fill="#FAFDFF"/>
<path d="M1582.26 220.582C1556.92 224.859 1533.81 213.094 1530.63 194.305C1527.46 175.516 1545.43 156.817 1570.77 152.54C1596.11 148.263 1619.22 160.027 1622.39 178.816C1625.56 197.606 1607.59 216.304 1582.26 220.582Z" fill="#FAFDFF"/>
<path d="M1663.05 256.821C1625.88 256.821 1595.74 234.474 1595.74 206.908C1595.74 179.342 1625.88 156.995 1663.05 156.995C1700.22 156.995 1730.36 179.342 1730.36 206.908C1730.36 234.474 1700.22 256.821 1663.05 256.821Z" fill="#FAFDFF"/>
<path d="M1213.72 328.589C1183.23 328.589 1158.52 306.389 1158.52 279.004C1158.52 251.62 1183.23 229.42 1213.72 229.42C1244.21 229.42 1268.93 251.62 1268.93 279.004C1268.93 306.389 1244.21 328.589 1213.72 328.589Z" fill="#F4FBFF"/>
<path d="M1154.57 303.087C1124.08 303.087 1099.37 280.887 1099.37 253.503C1099.37 226.118 1124.08 203.918 1154.57 203.918C1185.06 203.918 1209.78 226.118 1209.78 253.503C1209.78 280.887 1185.06 303.087 1154.57 303.087Z" fill="#F4FBFF"/>
<path d="M1297.32 334.962C1266.83 334.962 1242.11 312.762 1242.11 285.378C1242.11 257.993 1266.83 235.793 1297.32 235.793C1327.81 235.793 1352.52 257.993 1352.52 285.378C1352.52 312.762 1327.81 334.962 1297.32 334.962Z" fill="#F4FBFF"/>
<path d="M1369.88 322.213C1339.39 322.213 1314.67 300.013 1314.67 272.629C1314.67 245.244 1339.39 223.044 1369.88 223.044C1400.37 223.044 1425.09 245.244 1425.09 272.629C1425.09 300.013 1400.37 322.213 1369.88 322.213Z" fill="#F4FBFF"/>
<path d="M1218.45 269.796C1183.17 269.796 1154.57 244.425 1154.57 213.128C1154.57 181.831 1183.17 156.46 1218.45 156.46C1253.73 156.46 1282.34 181.831 1282.34 213.128C1282.34 244.425 1253.73 269.796 1218.45 269.796Z" fill="#F4FBFF"/>
<path d="M1126.18 300.963C1087.41 300.963 1055.98 272.896 1055.98 238.274C1055.98 203.652 1087.41 175.585 1126.18 175.585C1164.94 175.585 1196.37 203.652 1196.37 238.274C1196.37 272.896 1164.94 300.963 1126.18 300.963Z" fill="#F4FBFF"/>
<path d="M1268.92 285.633C1243.56 285.633 1223 267.166 1223 244.386C1223 221.606 1243.56 203.139 1268.92 203.139C1294.28 203.139 1314.84 221.606 1314.84 244.386C1314.84 267.166 1294.28 285.633 1268.92 285.633Z" fill="#F4FBFF"/>
<path d="M1409.31 308.755C1368.37 308.755 1335.18 278.944 1335.18 242.17C1335.18 205.396 1368.37 175.585 1409.31 175.585C1450.25 175.585 1483.45 205.396 1483.45 242.17C1483.45 278.944 1450.25 308.755 1409.31 308.755Z" fill="#F4FBFF"/>
<path d="M1318.29 269.469C1274.18 269.469 1238.42 237.353 1238.42 197.735C1238.42 158.117 1274.18 126 1318.29 126C1362.4 126 1398.16 158.117 1398.16 197.735C1398.16 237.353 1362.4 269.469 1318.29 269.469Z" fill="#F4FBFF"/>
<path d="M1196.15 330.388C1152.04 330.388 1116.29 298.272 1116.29 258.654C1116.29 219.036 1152.04 186.919 1196.15 186.919C1240.26 186.919 1276.02 219.036 1276.02 258.654C1276.02 298.272 1240.26 330.388 1196.15 330.388Z" fill="#F4FBFF"/>
<path d="M548.042 445.877C499.9 445.877 460.873 410.825 460.873 367.585C460.873 324.346 499.9 289.294 548.042 289.294C596.184 289.294 635.211 324.346 635.211 367.585C635.211 410.825 596.184 445.877 548.042 445.877Z" fill="#F0FAFE"/>
<path d="M454.644 405.612C406.501 405.612 367.475 370.56 367.475 327.321C367.475 284.082 406.501 249.029 454.644 249.029C502.786 249.029 541.812 284.082 541.812 327.321C541.812 370.56 502.786 405.612 454.644 405.612Z" fill="#F0FAFE"/>
<path d="M680.042 455.943C631.9 455.943 592.873 420.891 592.873 377.652C592.873 334.413 631.9 299.36 680.042 299.36C728.184 299.36 767.211 334.413 767.211 377.652C767.211 420.891 728.184 455.943 680.042 455.943Z" fill="#F0FAFE"/>
<path d="M794.605 435.809C746.462 435.809 707.436 400.757 707.436 357.518C707.436 314.279 746.462 279.227 794.605 279.227C842.747 279.227 881.773 314.279 881.773 357.518C881.773 400.757 842.747 435.809 794.605 435.809Z" fill="#F0FAFE"/>
<path d="M555.516 353.045C499.809 353.045 454.649 312.985 454.649 263.569C454.649 214.153 499.809 174.093 555.516 174.093C611.223 174.093 656.383 214.153 656.383 263.569C656.383 312.985 611.223 353.045 555.516 353.045Z" fill="#F0FAFE"/>
<path d="M409.812 402.257C348.602 402.257 298.982 357.94 298.982 303.274C298.982 248.607 348.602 204.291 409.812 204.291C471.021 204.291 520.641 248.607 520.641 303.274C520.641 357.94 471.021 402.257 409.812 402.257Z" fill="#F0FAFE"/>
<path d="M635.199 378.053C595.151 378.053 562.687 348.895 562.687 312.926C562.687 276.957 595.151 247.799 635.199 247.799C675.246 247.799 707.711 276.957 707.711 312.926C707.711 348.895 675.246 378.053 635.199 378.053Z" fill="#F0FAFE"/>
<path d="M856.866 414.559C792.219 414.559 739.811 367.489 739.811 309.425C739.811 251.361 792.219 204.291 856.866 204.291C921.514 204.291 973.922 251.361 973.922 309.425C973.922 367.489 921.514 414.559 856.866 414.559Z" fill="#F0FAFE"/>
<path d="M713.149 352.531C643.501 352.531 587.041 301.82 587.041 239.265C587.041 176.711 643.501 126 713.149 126C782.797 126 839.258 176.711 839.258 239.265C839.258 301.82 782.797 352.531 713.149 352.531Z" fill="#F0FAFE"/>
<path d="M520.306 448.717C450.658 448.717 394.197 398.007 394.197 335.452C394.197 272.897 450.658 222.187 520.306 222.187C589.953 222.187 646.414 272.897 646.414 335.452C646.414 398.007 589.953 448.717 520.306 448.717Z" fill="#F0FAFE"/>
<path d="M1034.99 260.001C1064.27 260.001 1088 240.427 1088 216.28C1088 192.134 1064.27 172.56 1034.99 172.56C1005.72 172.56 981.984 192.134 981.984 216.28C981.984 240.427 1005.72 260.001 1034.99 260.001Z" fill="#FAFDFF"/>
<path d="M1084.9 257.087C1103.2 257.087 1118.03 244.853 1118.03 229.761C1118.03 214.67 1103.2 202.436 1084.9 202.436C1066.61 202.436 1051.77 214.67 1051.77 229.761C1051.77 244.853 1066.61 257.087 1084.9 257.087Z" fill="#FAFDFF"/>
<path d="M1129.52 257.087C1147.82 257.087 1162.65 244.853 1162.65 229.761C1162.65 214.67 1147.82 202.436 1129.52 202.436C1111.22 202.436 1096.39 214.67 1096.39 229.761C1096.39 244.853 1111.22 257.087 1129.52 257.087Z" fill="#FAFDFF"/>
<path d="M1164.86 257.087C1183.15 257.087 1197.98 244.853 1197.98 229.761C1197.98 214.67 1183.15 202.436 1164.86 202.436C1146.56 202.436 1131.73 214.67 1131.73 229.761C1131.73 244.853 1146.56 257.087 1164.86 257.087Z" fill="#FAFDFF"/>
<path d="M1103.24 241.055C1129.71 241.055 1151.17 223.356 1151.17 201.524C1151.17 179.692 1129.71 161.993 1103.24 161.993C1076.77 161.993 1055.31 179.692 1055.31 201.524C1055.31 223.356 1076.77 241.055 1103.24 241.055Z" fill="#FAFDFF"/>
<path d="M941.978 321.963C890.612 321.963 848.972 287.617 848.972 245.249C848.972 202.881 890.612 168.535 941.978 168.535C993.344 168.535 1034.98 202.881 1034.98 245.249C1034.98 287.617 993.344 321.963 941.978 321.963Z" fill="white"/>
<path d="M854.395 316.847C822.291 316.847 796.266 295.381 796.266 268.901C796.266 242.421 822.291 220.955 854.395 220.955C886.498 220.955 912.523 242.421 912.523 268.901C912.523 295.381 886.498 316.847 854.395 316.847Z" fill="white"/>
<path d="M776.113 316.847C744.01 316.847 717.985 295.381 717.985 268.901C717.985 242.421 744.01 220.955 776.113 220.955C808.217 220.955 834.242 242.421 834.242 268.901C834.242 295.381 808.217 316.847 776.113 316.847Z" fill="white"/>
<path d="M727.5 317C688.012 317 656 290.585 656 258C656 225.415 688.012 199 727.5 199C766.988 199 799 225.415 799 258C799 290.585 766.988 317 727.5 317Z" fill="white"/>
<path d="M822.235 288.719C775.792 288.719 738.142 257.665 738.142 219.357C738.142 181.05 775.792 149.995 822.235 149.995C868.678 149.995 906.328 181.05 906.328 219.357C906.328 257.665 868.678 288.719 822.235 288.719Z" fill="white"/>
<path d="M236.509 362.959C171.401 362.959 118.62 323.82 118.62 275.54C118.62 227.259 171.401 188.12 236.509 188.12C301.618 188.12 354.398 227.259 354.398 275.54C354.398 323.82 301.618 362.959 236.509 362.959Z" fill="#F9FDFF"/>
<path d="M125.499 357.131C84.8063 357.131 51.8184 332.669 51.8184 302.494C51.8184 272.318 84.8063 247.856 125.499 247.856C166.192 247.856 199.18 272.318 199.18 302.494C199.18 332.669 166.192 357.131 125.499 357.131Z" fill="#F9FDFF"/>
<path d="M26.2725 357.131C-14.4202 357.131 -47.4082 332.669 -47.4082 302.494C-47.4082 272.318 -14.4202 247.856 26.2725 247.856C66.9652 247.856 99.9531 272.318 99.9531 302.494C99.9531 332.669 66.9652 357.131 26.2725 357.131Z" fill="#F9FDFF"/>
<path d="M-52.3213 357.131C-93.014 357.131 -126.002 332.669 -126.002 302.494C-126.002 272.318 -93.014 247.856 -52.3213 247.856C-11.6286 247.856 21.3594 272.318 21.3594 302.494C21.3594 332.669 -11.6286 357.131 -52.3213 357.131Z" fill="#F9FDFF"/>
<path d="M84.729 325.077C25.8602 325.077 -21.8624 289.689 -21.8624 246.035C-21.8624 202.381 25.8602 166.993 84.729 166.993C143.598 166.993 191.32 202.381 191.32 246.035C191.32 289.689 143.598 325.077 84.729 325.077Z" fill="#F9FDFF"/>
<path d="M485.956 319.965C445.097 319.965 411.975 295.403 411.975 265.104C411.975 234.806 445.097 210.244 485.956 210.244C526.815 210.244 559.938 234.806 559.938 265.104C559.938 295.403 526.815 319.965 485.956 319.965Z" fill="white"/>
<path d="M416.293 316.307C390.756 316.307 370.054 300.956 370.054 282.019C370.054 263.083 390.756 247.731 416.293 247.731C441.83 247.731 462.531 263.083 462.531 282.019C462.531 300.956 441.83 316.307 416.293 316.307Z" fill="white"/>
<path d="M354.019 316.307C328.483 316.307 307.781 300.956 307.781 282.019C307.781 263.083 328.483 247.731 354.019 247.731C379.556 247.731 400.258 263.083 400.258 282.019C400.258 300.956 379.556 316.307 354.019 316.307Z" fill="white"/>
<path d="M304.699 316.307C279.162 316.307 258.461 300.956 258.461 282.019C258.461 263.083 279.162 247.731 304.699 247.731C330.236 247.731 350.938 263.083 350.938 282.019C350.938 300.956 330.236 316.307 304.699 316.307Z" fill="white"/>
<path d="M390.702 296.192C353.759 296.192 323.811 273.984 323.811 246.589C323.811 219.194 353.759 196.986 390.702 196.986C427.645 196.986 457.594 219.194 457.594 246.589C457.594 273.984 427.645 296.192 390.702 296.192Z" fill="white"/>
<path d="M650.712 267.089C623.985 265.357 603.359 247.886 604.643 228.066C605.928 208.247 628.636 193.584 655.363 195.316C682.091 197.048 702.717 214.519 701.432 234.339C700.148 254.158 677.44 268.821 650.712 267.089Z" fill="white"/>
<path d="M605.292 261.744C588.587 260.661 575.696 249.742 576.499 237.355C577.301 224.967 591.494 215.803 608.199 216.886C624.903 217.968 637.795 228.888 636.992 241.275C636.189 253.662 621.996 262.826 605.292 261.744Z" fill="white"/>
<path d="M564.557 259.104C547.853 258.022 534.962 247.102 535.764 234.715C536.567 222.328 550.76 213.163 567.464 214.246C584.169 215.328 597.06 226.248 596.257 238.635C595.455 251.022 581.262 260.187 564.557 259.104Z" fill="white"/>
<path d="M532.3 257.013C515.595 255.931 502.704 245.011 503.506 232.624C504.309 220.237 518.502 211.073 535.207 212.155C551.911 213.238 564.802 224.157 564 236.544C563.197 248.932 549.004 258.096 532.3 257.013Z" fill="white"/>
<path d="M589.413 254.73C565.247 253.164 546.598 237.367 547.759 219.447C548.92 201.527 569.452 188.269 593.618 189.835C617.784 191.401 636.434 207.198 635.272 225.118C634.111 243.039 613.579 256.296 589.413 254.73Z" fill="white"/>
<path d="M564.898 282.679C547.261 278.18 535.482 264.658 538.589 252.476C541.697 240.294 558.514 234.066 576.151 238.565C593.788 243.064 605.567 256.586 602.459 268.768C599.352 280.95 582.535 287.178 564.898 282.679Z" fill="white"/>
<path d="M538.421 266.353C527.398 263.541 520.037 255.09 521.979 247.476C523.921 239.862 534.431 235.97 545.455 238.782C556.478 241.594 563.84 250.045 561.897 257.659C559.955 265.273 549.445 269.165 538.421 266.353Z" fill="white"/>
<path d="M511.539 259.496C500.515 256.684 493.154 248.232 495.096 240.619C497.038 233.005 507.549 229.112 518.572 231.924C529.595 234.736 536.957 243.188 535.015 250.801C533.072 258.415 522.562 262.308 511.539 259.496Z" fill="white"/>
<path d="M490.25 254.066C479.226 251.254 471.865 242.803 473.807 235.189C475.749 227.575 486.26 223.683 497.283 226.495C508.306 229.306 515.668 237.758 513.726 245.372C511.783 252.985 501.273 256.878 490.25 254.066Z" fill="white"/>
<path d="M529.435 255.448C513.488 251.38 502.838 239.154 505.648 228.139C508.458 217.125 523.663 211.493 539.61 215.561C555.557 219.629 566.207 231.856 563.397 242.87C560.587 253.885 545.382 259.516 529.435 255.448Z" fill="white"/>
<path d="M1747.79 324.625C1795.18 324.625 1833.6 296.137 1833.6 260.996C1833.6 225.854 1795.18 197.366 1747.79 197.366C1700.4 197.366 1661.98 225.854 1661.98 260.996C1661.98 296.137 1700.4 324.625 1747.79 324.625Z" fill="#F9FDFF"/>
<path d="M1828.59 320.383C1858.21 320.383 1882.22 302.578 1882.22 280.615C1882.22 258.652 1858.21 240.847 1828.59 240.847C1798.97 240.847 1774.96 258.652 1774.96 280.615C1774.96 302.578 1798.97 320.383 1828.59 320.383Z" fill="#F9FDFF"/>
<path d="M1900.82 320.383C1930.44 320.383 1954.45 302.578 1954.45 280.615C1954.45 258.652 1930.44 240.847 1900.82 240.847C1871.2 240.847 1847.19 258.652 1847.19 280.615C1847.19 302.578 1871.2 320.383 1900.82 320.383Z" fill="#F9FDFF"/>
<path d="M1958.02 320.383C1987.64 320.383 2011.65 302.578 2011.65 280.615C2011.65 258.652 1987.64 240.847 1958.02 240.847C1928.4 240.847 1904.39 258.652 1904.39 280.615C1904.39 302.578 1928.4 320.383 1958.02 320.383Z" fill="#F9FDFF"/>
<path d="M1858.27 297.053C1901.12 297.053 1935.85 271.296 1935.85 239.522C1935.85 207.748 1901.12 181.99 1858.27 181.99C1815.42 181.99 1780.69 207.748 1780.69 239.522C1780.69 271.296 1815.42 297.053 1858.27 297.053Z" fill="#F9FDFF"/>
<path d="M1402.41 271.711C1441.86 271.711 1473.83 248.002 1473.83 218.755C1473.83 189.507 1441.86 165.798 1402.41 165.798C1362.97 165.798 1331 189.507 1331 218.755C1331 248.002 1362.97 271.711 1402.41 271.711Z" fill="white"/>
<path d="M1469.67 278.181C1494.32 278.181 1514.3 263.363 1514.3 245.083C1514.3 226.804 1494.32 211.985 1469.67 211.985C1445.01 211.985 1425.03 226.804 1425.03 245.083C1425.03 263.363 1445.01 278.181 1469.67 278.181Z" fill="white"/>
<path d="M1529.77 278.181C1554.43 278.181 1574.41 263.363 1574.41 245.083C1574.41 226.804 1554.43 211.985 1529.77 211.985C1505.12 211.985 1485.14 226.804 1485.14 245.083C1485.14 263.363 1505.12 278.181 1529.77 278.181Z" fill="white"/>
<path d="M1577.38 278.181C1602.03 278.181 1622.01 263.363 1622.01 245.083C1622.01 226.804 1602.03 211.985 1577.38 211.985C1552.73 211.985 1532.74 226.804 1532.74 245.083C1532.74 263.363 1552.73 278.181 1577.38 278.181Z" fill="white"/>
<path d="M1494.36 258.763C1530.02 258.763 1558.93 237.326 1558.93 210.882C1558.93 184.437 1530.02 163 1494.36 163C1458.7 163 1429.79 184.437 1429.79 210.882C1429.79 237.326 1458.7 258.763 1494.36 258.763Z" fill="white"/>
<path d="M1736.03 310.739C1702.08 305.954 1676.7 286.877 1679.34 268.129C1681.99 249.38 1711.65 238.061 1745.6 242.846C1779.55 247.631 1804.94 266.708 1802.29 285.456C1799.65 304.204 1769.99 315.524 1736.03 310.739Z" fill="white"/>
<path d="M1678.46 300.317C1657.24 297.326 1641.38 285.403 1643.03 273.686C1644.68 261.968 1663.23 254.893 1684.45 257.884C1705.67 260.874 1721.53 272.798 1719.88 284.515C1718.23 296.233 1699.68 303.308 1678.46 300.317Z" fill="white"/>
<path d="M1626.72 293.025C1605.5 290.034 1589.64 278.111 1591.29 266.394C1592.94 254.676 1611.48 247.601 1632.7 250.592C1653.92 253.582 1669.79 265.506 1668.13 277.223C1666.48 288.941 1647.94 296.016 1626.72 293.025Z" fill="white"/>
<path d="M1585.74 287.25C1564.52 284.259 1548.65 272.336 1550.31 260.618C1551.96 248.901 1570.5 241.826 1591.72 244.817C1612.94 247.807 1628.8 259.73 1627.15 271.448C1625.5 283.166 1606.96 290.24 1585.74 287.25Z" fill="white"/>
<path d="M1658.96 284.873C1628.26 280.547 1605.31 263.298 1607.7 246.346C1610.09 229.395 1636.91 219.16 1667.61 223.487C1698.31 227.813 1721.26 245.062 1718.87 262.014C1716.48 278.965 1689.66 289.2 1658.96 284.873Z" fill="white"/>
<path d="M1831.82 337.182C1878.8 331.688 1914.14 303.748 1910.75 274.776C1907.36 245.804 1866.53 226.771 1819.55 232.265C1772.57 237.758 1737.23 265.698 1740.62 294.67C1744.01 323.642 1784.84 342.675 1831.82 337.182Z" fill="white"/>
<path d="M1911.51 324.318C1940.87 320.885 1962.95 303.422 1960.84 285.315C1958.72 267.207 1933.2 255.311 1903.84 258.745C1874.47 262.178 1852.39 279.641 1854.51 297.748C1856.62 315.856 1882.14 327.752 1911.51 324.318Z" fill="white"/>
<path d="M1938.68 301.642C1981.16 296.675 2013.11 271.412 2010.04 245.217C2006.98 219.021 1970.06 201.812 1927.58 206.78C1885.11 211.747 1853.16 237.009 1856.22 263.205C1859.28 289.4 1896.2 306.609 1938.68 301.642Z" fill="white"/>
<path d="M128.072 363.967C81.9008 363.967 44.4719 336.212 44.4719 301.974C44.4719 267.737 81.9008 239.981 128.072 239.981C174.243 239.981 211.672 267.737 211.672 301.974C211.672 336.212 174.243 363.967 128.072 363.967Z" fill="white"/>
<path d="M49.3516 359.835C20.4947 359.835 -2.89845 342.488 -2.89845 321.089C-2.89845 299.691 20.4947 282.344 49.3516 282.344C78.2084 282.344 101.602 299.691 101.602 321.089C101.602 342.488 78.2084 359.835 49.3516 359.835Z" fill="white"/>
<path d="M-21.0156 359.835C-49.8725 359.835 -73.2656 342.488 -73.2656 321.089C-73.2656 299.691 -49.8725 282.344 -21.0156 282.344C7.84125 282.344 31.2344 299.691 31.2344 321.089C31.2344 342.488 7.84125 359.835 -21.0156 359.835Z" fill="white"/>
<path d="M20.4351 337.104C-21.3112 337.104 -55.1532 312.009 -55.1532 281.052C-55.1532 250.095 -21.3112 225 20.4351 225C62.1814 225 96.0234 250.095 96.0234 281.052C96.0234 312.009 62.1814 337.104 20.4351 337.104Z" fill="white"/>
<path d="M1317.99 367.935C1236.81 367.935 1171 331.598 1171 286.775C1171 241.951 1236.81 205.614 1317.99 205.614C1399.17 205.614 1464.98 241.951 1464.98 286.775C1464.98 331.598 1399.17 367.935 1317.99 367.935Z" fill="white"/>
<path d="M1179.57 362.525C1128.83 362.525 1087.7 339.814 1087.7 311.799C1087.7 283.785 1128.83 261.074 1179.57 261.074C1230.31 261.074 1271.45 283.785 1271.45 311.799C1271.45 339.814 1230.31 362.525 1179.57 362.525Z" fill="white"/>
<path d="M1055.85 362.525C1005.11 362.525 963.976 339.814 963.976 311.799C963.976 283.785 1005.11 261.074 1055.85 261.074C1106.59 261.074 1147.72 283.785 1147.72 311.799C1147.72 339.814 1106.59 362.525 1055.85 362.525Z" fill="white"/>
<path d="M957.855 362.525C907.116 362.525 865.984 339.814 865.984 311.799C865.984 283.785 907.116 261.074 957.855 261.074C1008.59 261.074 1049.73 283.785 1049.73 311.799C1049.73 339.814 1008.59 362.525 957.855 362.525Z" fill="white"/>
<path d="M1128.73 332.765C1055.33 332.765 995.826 299.91 995.826 259.382C995.826 218.854 1055.33 186 1128.73 186C1202.14 186 1261.64 218.854 1261.64 259.382C1261.64 299.91 1202.14 332.765 1128.73 332.765Z" fill="white"/>
<path d="M-15 496V248.543C34.1667 259.875 187.9 279.138 409.5 265.54C686.5 248.543 688 207.051 887.5 205.051C1087 203.051 1350.5 248.043 1679.5 265.54C1900.33 277.285 1967.65 273.427 1977.5 268.436V265.54C1979.16 266.479 1979.39 267.479 1977.5 268.436V496H-15Z" fill="white"/>
<g opacity="0.8">
<path d="M167.295 106C188.669 106 205.996 88.5857 205.996 67.1037C205.996 45.6217 188.669 28.207 167.295 28.207C145.921 28.207 128.594 45.6217 128.594 67.1037C128.594 88.5857 145.921 106 167.295 106Z" fill="white"/>
<path d="M113.34 89.5993C137.958 89.5993 157.915 69.5418 157.915 44.7997C157.915 20.0575 137.958 0 113.34 0C88.7224 0 68.7656 20.0575 68.7656 44.7997C68.7656 69.5418 88.7224 89.5993 113.34 89.5993Z" fill="white"/>
<path d="M165.315 58.8379H73.4628C60.5046 58.8379 50 69.3956 50 82.4191C50 95.4426 60.5046 106 73.4628 106H165.315C178.273 106 188.778 95.4426 188.778 82.4191C188.778 69.3956 178.273 58.8379 165.315 58.8379Z" fill="white"/>
</g>
</g>
</svg>
